<?xml version="1.0" encoding="UTF-8"?>
<svg id="Layer_1" xmlns="http://www.w3.org/2000/svg" version="1.1" viewBox="0 0 500 500">
  <!-- Generator: Adobe Illustrator 29.7.1, SVG Export Plug-In . SVG Version: 2.1.1 Build 8)  -->
  <defs>
    <style>
      .st0 {
        fill: #f2f2f2;
      }

      .st1 {
        fill: #6c2fff;
      }
    </style>
  </defs>
  <path class="st0" d="M146.5,1.7c-26.6,1.3-44.8,5.5-60.6,11.7-16.4,6.4-30.4,15-44.2,28.9-13.9,13.9-22.4,27.9-28.8,44.3-6.2,15.9-10.3,34.1-11.5,60.7C.2,174.1-.1,182.6,0,250.5c.1,67.9.4,76.4,1.7,103.1,1.3,26.6,5.5,44.8,11.7,60.6,6.4,16.4,15,30.4,28.9,44.2,13.9,13.9,27.9,22.4,44.3,28.7,15.9,6.1,34.1,10.3,60.7,11.5,26.7,1.2,35.2,1.4,103,1.3,67.9-.1,76.4-.4,103.1-1.7,26.6-1.3,44.8-5.5,60.6-11.7,16.4-6.4,30.4-15,44.2-28.9,13.9-13.9,22.4-27.9,28.7-44.3,6.2-15.9,10.3-34.1,11.5-60.7,1.2-26.7,1.4-35.2,1.3-103.1-.1-67.9-.4-76.4-1.7-103-1.3-26.6-5.5-44.8-11.7-60.7-6.4-16.4-15-30.4-28.9-44.2-13.9-13.9-27.9-22.4-44.3-28.7-15.9-6.2-34.1-10.4-60.7-11.5C325.9.2,317.4,0,249.5,0c-67.9.1-76.4.4-103.1,1.7M149.4,453.7c-24.4-1.1-37.6-5.1-46.4-8.5-11.7-4.5-20-9.9-28.8-18.6-8.8-8.7-14.2-17.1-18.8-28.7-3.4-8.8-7.5-22-8.7-46.4-1.2-26.3-1.5-34.3-1.6-101-.1-66.7.1-74.6,1.3-101,1-24.4,5.1-37.6,8.5-46.4,4.5-11.7,9.9-20,18.6-28.8,8.7-8.8,17.1-14.2,28.7-18.8,8.8-3.4,22-7.5,46.4-8.7,26.4-1.2,34.3-1.5,101-1.6,66.8-.1,74.7.1,101,1.3,24.4,1.1,37.6,5.1,46.4,8.5,11.7,4.5,20,9.9,28.8,18.6,8.8,8.7,14.2,17,18.8,28.7,3.4,8.8,7.5,22,8.7,46.4,1.3,26.4,1.5,34.3,1.7,101,.1,66.8-.1,74.7-1.3,101-1.1,24.4-5.1,37.6-8.5,46.4-4.5,11.7-9.9,20-18.7,28.8-8.7,8.7-17,14.2-28.7,18.8-8.8,3.4-22,7.5-46.4,8.7-26.4,1.2-34.3,1.5-101,1.6-66.7.1-74.6-.1-101-1.3"/>
  <path class="st1" d="M353.2,116.4c0,16.6,13.5,30,30.1,29.9,16.6,0,30-13.5,29.9-30,0-16.6-13.5-30-30.1-29.9-16.6,0-30,13.5-29.9,30.1M121.6,250.2c.1,70.9,57.7,128.2,128.6,128.1,70.9-.1,128.3-57.7,128.1-128.6-.1-70.9-57.7-128.3-128.6-128.1-70.9.1-128.2,57.7-128.1,128.6M166.7,250.2c0-46,37.2-83.4,83.2-83.5,46,0,83.4,37.1,83.5,83.2,0,46-37.2,83.4-83.2,83.5-46,0-83.4-37.1-83.5-83.2"/>
</svg>